<svg xmlns="http://www.w3.org/2000/svg" width="1200" height="760" viewBox="0 0 1200 760" role="img" aria-labelledby="title desc">
  <title id="title">Independent music store visual</title>
  <desc id="desc">A stylized studio scene with music equipment, album art, and light beams.</desc>
  <defs>
    <linearGradient id="bg" x1="0" y1="0" x2="1" y2="1">
      <stop offset="0" stop-color="#121212"/>
      <stop offset=".45" stop-color="#18272a"/>
      <stop offset="1" stop-color="#3c241b"/>
    </linearGradient>
    <radialGradient id="glowA" cx="36%" cy="30%" r="60%">
      <stop offset="0" stop-color="#f0b45f" stop-opacity=".5"/>
      <stop offset=".6" stop-color="#f0b45f" stop-opacity=".08"/>
      <stop offset="1" stop-color="#f0b45f" stop-opacity="0"/>
    </radialGradient>
    <radialGradient id="glowB" cx="78%" cy="34%" r="58%">
      <stop offset="0" stop-color="#58d3cf" stop-opacity=".35"/>
      <stop offset=".62" stop-color="#58d3cf" stop-opacity=".06"/>
      <stop offset="1" stop-color="#58d3cf" stop-opacity="0"/>
    </radialGradient>
    <linearGradient id="album" x1="0" y1="0" x2="1" y2="1">
      <stop offset="0" stop-color="#f4cc83"/>
      <stop offset=".48" stop-color="#cf6e58"/>
      <stop offset="1" stop-color="#174d55"/>
    </linearGradient>
    <filter id="shadow" x="-20%" y="-20%" width="140%" height="140%">
      <feDropShadow dx="0" dy="24" stdDeviation="26" flood-color="#000" flood-opacity=".45"/>
    </filter>
  </defs>
  <rect width="1200" height="760" fill="url(#bg)"/>
  <rect width="1200" height="760" fill="url(#glowA)"/>
  <rect width="1200" height="760" fill="url(#glowB)"/>
  <path d="M0 620 C210 560 300 650 520 600 C720 554 820 462 1200 520 L1200 760 L0 760 Z" fill="#0f1415" opacity=".72"/>
  <g opacity=".22" stroke="#fff" stroke-width="2">
    <path d="M90 96 L470 520"/>
    <path d="M210 64 L560 510"/>
    <path d="M930 80 L700 518"/>
    <path d="M1080 118 L780 535"/>
  </g>
  <g transform="translate(690 155)" filter="url(#shadow)">
    <rect x="0" y="0" width="328" height="328" rx="22" fill="url(#album)"/>
    <circle cx="166" cy="166" r="106" fill="#111" opacity=".38"/>
    <circle cx="166" cy="166" r="38" fill="#f8ead2" opacity=".72"/>
    <path d="M26 256 C94 220 142 248 204 214 C254 187 278 146 322 132 L322 328 L26 328 Z" fill="#0f2428" opacity=".5"/>
    <path d="M32 62 C102 78 145 58 207 90 C251 113 278 100 312 82" fill="none" stroke="#fff7e8" stroke-width="6" stroke-linecap="round" opacity=".36"/>
  </g>
  <g transform="translate(138 402)" filter="url(#shadow)">
    <rect x="0" y="0" width="458" height="150" rx="20" fill="#202225"/>
    <rect x="24" y="28" width="98" height="94" rx="12" fill="#111"/>
    <circle cx="73" cy="75" r="34" fill="#303941"/>
    <circle cx="73" cy="75" r="9" fill="#f0b45f"/>
    <rect x="154" y="35" width="262" height="12" rx="6" fill="#d8e5e2" opacity=".75"/>
    <rect x="154" y="68" width="218" height="10" rx="5" fill="#58d3cf" opacity=".65"/>
    <g fill="#f0b45f">
      <circle cx="170" cy="111" r="11"/>
      <circle cx="214" cy="111" r="11"/>
      <circle cx="258" cy="111" r="11"/>
      <circle cx="302" cy="111" r="11"/>
    </g>
  </g>
  <g transform="translate(545 455)" fill="none" stroke="#dcebe8" stroke-linecap="round" opacity=".82">
    <path d="M0 0 C78 -78 156 -78 235 0" stroke-width="20"/>
    <path d="M26 0 L26 94" stroke-width="18"/>
    <path d="M209 0 L209 94" stroke-width="18"/>
  </g>
  <g transform="translate(777 500)">
    <rect width="248" height="84" rx="42" fill="#eef7f4" opacity=".92"/>
    <circle cx="58" cy="42" r="18" fill="#1e7f7a"/>
    <rect x="92" y="31" width="110" height="9" rx="4.5" fill="#203033" opacity=".55"/>
    <rect x="92" y="49" width="76" height="8" rx="4" fill="#203033" opacity=".32"/>
  </g>
</svg>
